<?xml version="1.0" encoding="UTF-8" standalone="no"?>
<svg width="198px" height="44px" viewBox="0 0 198 44" version="1.1" xmlns="http://www.w3.org/2000/svg" xmlns:xlink="http://www.w3.org/1999/xlink">
    <!-- Generator: Sketch 39.1 (31720) - http://www.bohemiancoding.com/sketch -->
    <title>Logotipo Apeperia</title>
    <desc>Created with Sketch.</desc>
    <defs></defs>
    <g id="Page-1" stroke="none" stroke-width="1" fill="none" fill-rule="evenodd">
        <g id="Logotipo-Apeperia">
            <path d="M21.8284173,43.7786164 C33.8839192,43.7786164 43.6568345,34.0321276 43.6568345,22.0092243 C43.6568345,9.98632109 33.8839192,0.239832285 21.8284173,0.239832285 C9.7729153,0.239832285 0,9.98632109 0,22.0092243 C0,34.0321276 9.7729153,43.7786164 21.8284173,43.7786164 L21.8284173,43.7786164 Z" id="Oval-1" fill="#009971"></path>
            <path d="M25.2245461,34.2222222 C25.0550781,33.8395552 24.9067957,33.4462645 24.7796947,33.0423382 C24.6525937,32.6384119 24.5537388,32.2309485 24.4831271,31.8199358 C23.7487656,32.6703069 22.8555412,33.3576799 21.8034271,33.8820755 C20.7513129,34.406471 19.5474018,34.6686648 18.1916574,34.6686648 C15.9462058,34.6686648 14.1632875,34.0556982 12.842849,32.8297465 C11.5224105,31.6037948 10.8622011,29.9349664 10.8622011,27.8232115 C10.8622011,25.668938 11.7236507,24.0036528 13.4465759,22.8273061 C15.169501,21.6509594 17.6973614,21.0627948 21.030233,21.0627948 L24.1865595,21.0627948 L24.1865595,18.8093226 C24.1865595,17.7038401 23.8688117,16.8463954 23.2333065,16.2369628 C22.5978014,15.6275301 21.65868,15.3228184 20.4159144,15.3228184 C19.7097975,15.3228184 19.0813629,15.4043111 18.5305918,15.5672989 C17.9798206,15.7302867 17.5349737,15.9251605 17.1960376,16.1519261 L16.793553,18.61799 L12.1332051,18.61799 L12.1543885,13.5157888 C13.2841754,12.7504548 14.5798804,12.1055997 16.0415423,11.5812041 C17.5032042,11.0568086 19.0954738,10.7946148 20.818399,10.7946148 C23.6569887,10.7946148 25.9624257,11.4926173 27.734779,12.8886432 C29.5071323,14.2846691 30.3932956,16.2723818 30.3932956,18.8518409 L30.3932956,28.3546908 C30.3932956,28.7090121 30.3968262,29.0420691 30.4038873,29.3538719 C30.4109485,29.6656746 30.4356622,29.9633 30.4780292,30.2467571 L32.3633518,30.5018671 L32.3633518,34.2222222 L25.2245461,34.2222222 L25.2245461,34.2222222 Z M19.865146,30.0766837 C20.7972202,30.0766837 21.6445477,29.8747236 22.4071539,29.4707973 C23.1697601,29.066871 23.7628894,28.5601992 24.1865595,27.9507665 L24.1865595,24.4430031 L21.030233,24.4430031 C19.7168556,24.4430031 18.7212458,24.7512581 18.0433736,25.3677771 C17.3655014,25.9842962 17.0265704,26.7248166 17.0265704,27.5893606 C17.0265704,28.3688675 17.2772381,28.978291 17.7785811,29.4176494 C18.2799241,29.8570078 18.9754387,30.0766837 19.865146,30.0766837 L19.865146,30.0766837 L19.865146,30.0766837 Z" id="a" fill="#333333"></path>
            <path d="M68.4063973,32.0637317 C68.2708229,31.7575981 68.152197,31.4429655 68.0505162,31.1198244 C67.9488353,30.7966834 67.8697514,30.4707127 67.8132621,30.1419025 C67.2257729,30.8221994 66.5111933,31.3720978 65.669502,31.7916143 C64.8278108,32.2111307 63.8646818,32.4208857 62.7800863,32.4208857 C60.983725,32.4208857 59.5573904,31.9305124 58.5010396,30.949751 C57.4446888,29.9689897 56.9165213,28.633927 56.9165213,26.9445231 C56.9165213,25.2211042 57.605681,23.8888761 58.9840211,22.9477987 C60.3623612,22.0067214 62.3846495,21.5361897 65.0509468,21.5361897 L67.576008,21.5361897 L67.576008,19.7334119 C67.576008,18.849026 67.3218098,18.1630702 66.8134056,17.6755241 C66.3050015,17.187978 65.5537044,16.9442086 64.5594919,16.9442086 C63.9945984,16.9442086 63.4918508,17.0094027 63.0512338,17.139793 C62.6106169,17.2701832 62.2547394,17.4260823 61.9835905,17.6074948 L61.6616028,19.5803459 L57.9333245,19.5803459 L57.9502712,15.4985849 C58.8541008,14.8863177 59.8906648,14.3704336 61.0599943,13.9509172 C62.2293238,13.5314008 63.5031395,13.3216457 64.8814796,13.3216457 C67.1523514,13.3216457 68.9967009,13.8800477 70.4145836,14.9968684 C71.8324662,16.1136892 72.5413969,17.7038594 72.5413969,19.7674266 L72.5413969,27.3697065 C72.5413969,27.6531635 72.5442213,27.9196092 72.5498703,28.1690514 C72.5555192,28.4184936 72.5752902,28.6565939 72.6091838,28.8833595 L74.1174419,29.0874476 L74.1174419,32.0637317 L68.4063973,32.0637317 L68.4063973,32.0637317 Z M64.1188772,28.7473008 C64.8645366,28.7473008 65.5423986,28.5857327 66.1524836,28.2625917 C66.7625685,27.9394507 67.2370719,27.5341132 67.576008,27.0465671 L67.576008,24.2403564 L65.0509468,24.2403564 C64.0002449,24.2403564 63.203757,24.4869603 62.6614593,24.9801756 C62.1191615,25.4733908 61.8480167,26.0658072 61.8480167,26.7574423 C61.8480167,27.3810478 62.0485509,27.8685866 62.4496253,28.2200734 C62.8506997,28.5715601 63.4071114,28.7473008 64.1188772,28.7473008 L64.1188772,28.7473008 L64.1188772,28.7473008 Z M75.4223393,16.6550839 L75.4223393,13.6617925 L82.6077485,13.6617925 L82.8450025,15.804717 C83.3873003,15.0110373 84.036918,14.3987792 84.7938753,13.9679245 C85.5508326,13.5370698 86.4320532,13.3216457 87.4375636,13.3216457 C89.7084354,13.3216457 91.4708766,14.2116875 92.7249402,15.9917977 C93.9790037,17.7719079 94.6060261,20.113228 94.6060261,23.0158281 L94.6060261,23.3729822 C94.6060261,26.0941698 93.9790037,28.2824253 92.7249402,29.9378145 C91.4708766,31.5932036 89.7197331,32.4208857 87.471457,32.4208857 C86.5111381,32.4208857 85.6581617,32.2423105 84.9125023,31.8851546 C84.1668429,31.5279987 83.5285229,31.0036111 82.997523,30.3119759 L82.997523,35.6352725 L85.3870105,36.1454927 L85.3870105,39.1387841 L75.6765401,39.1387841 L75.6765401,36.1454927 L78.0660276,35.6352725 L78.0660276,17.165304 L75.4223393,16.6550839 L75.4223393,16.6550839 Z M89.6575839,23.0158281 C89.6575839,21.281071 89.3694925,19.8751451 88.7933012,18.7980084 C88.2171098,17.7208716 87.3358892,17.1823113 86.1496129,17.1823113 C85.4039535,17.1823113 84.7684579,17.3353758 84.2431069,17.6415094 C83.717756,17.947643 83.3025655,18.3841603 82.997523,18.9510744 L82.997523,27.0125524 C83.3025655,27.5341134 83.717756,27.9309473 84.2431069,28.203066 C84.7684579,28.4751848 85.4152512,28.6112421 86.1835063,28.6112421 C87.3810805,28.6112421 88.2594767,28.1407105 88.8187213,27.1996331 C89.3779658,26.2585557 89.6575839,24.9830182 89.6575839,23.3729822 L89.6575839,23.0158281 L89.6575839,23.0158281 Z M105.5875,32.4208857 C102.943799,32.4208857 100.831129,31.5705274 99.2494273,29.8697851 C97.6677255,28.1690429 96.8768865,26.0091326 96.8768865,23.3899895 L96.8768865,22.709696 C96.8768865,19.9771701 97.6253591,17.726555 99.1223269,15.957783 C100.619295,14.1890111 102.627461,13.3103074 105.146886,13.3216457 C107.621119,13.3216457 109.541728,14.0699611 110.90877,15.5666143 C112.275813,17.0632674 112.959324,19.0871204 112.959324,21.6382338 L112.959324,24.3424004 L102.011743,24.3424004 L101.977849,24.4444444 C102.068232,25.6576406 102.472125,26.6553944 103.18954,27.4377358 C103.906954,28.2200773 104.881381,28.6112421 106.112849,28.6112421 C107.208742,28.6112421 108.118207,28.5006955 108.841271,28.2795991 C109.564334,28.0585026 110.355173,27.7098556 111.213811,27.2336478 L112.552602,30.2949686 C111.795645,30.8958975 110.81557,31.4004435 109.612346,31.8086216 C108.409123,32.2167997 107.067521,32.4208857 105.5875,32.4208857 L105.5875,32.4208857 L105.5875,32.4208857 Z M105.146886,17.1482966 C104.231758,17.1482966 103.508705,17.4997781 102.977706,18.2027516 C102.446706,18.905725 102.119072,19.8297811 101.994796,20.9749476 L102.045636,21.0599843 L108.112562,21.0599843 L108.112562,20.6177935 C108.112562,19.5633333 107.866837,18.7214785 107.375379,18.0922039 C106.883922,17.4629292 106.141098,17.1482966 105.146886,17.1482966 L105.146886,17.1482966 L105.146886,17.1482966 Z M114.925143,16.6550839 L114.925143,13.6617925 L122.110552,13.6617925 L122.347806,15.804717 C122.890104,15.0110373 123.539722,14.3987792 124.296679,13.9679245 C125.053636,13.5370698 125.934857,13.3216457 126.940367,13.3216457 C129.211239,13.3216457 130.97368,14.2116875 132.227744,15.9917977 C133.481807,17.7719079 134.10883,20.113228 134.10883,23.0158281 L134.10883,23.3729822 C134.10883,26.0941698 133.481807,28.2824253 132.227744,29.9378145 C130.97368,31.5932036 129.222537,32.4208857 126.974261,32.4208857 C126.013942,32.4208857 125.160966,32.2423105 124.415306,31.8851546 C123.669647,31.5279987 123.031327,31.0036111 122.500327,30.3119759 L122.500327,35.6352725 L124.889814,36.1454927 L124.889814,39.1387841 L115.179344,39.1387841 L115.179344,36.1454927 L117.568831,35.6352725 L117.568831,17.165304 L114.925143,16.6550839 L114.925143,16.6550839 Z M129.160388,23.0158281 C129.160388,21.281071 128.872296,19.8751451 128.296105,18.7980084 C127.719914,17.7208716 126.838693,17.1823113 125.652417,17.1823113 C124.906757,17.1823113 124.271262,17.3353758 123.745911,17.6415094 C123.22056,17.947643 122.805369,18.3841603 122.500327,18.9510744 L122.500327,27.0125524 C122.805369,27.5341134 123.22056,27.9309473 123.745911,28.203066 C124.271262,28.4751848 124.918055,28.6112421 125.68631,28.6112421 C126.883884,28.6112421 127.76228,28.1407105 128.321525,27.1996331 C128.88077,26.2585557 129.160388,24.9830182 129.160388,23.3729822 L129.160388,23.0158281 L129.160388,23.0158281 Z M138.752231,29.8697851 C137.170529,28.1690429 136.37969,26.0091326 136.37969,23.3899895 L136.37969,22.709696 C136.37969,19.9771701 137.128163,17.726555 138.625131,15.957783 C140.122098,14.1890111 142.130265,13.3103074 144.64969,13.3216457 C147.123923,13.3216457 149.044532,14.0699611 150.411574,15.5666143 C151.778616,17.0632674 152.462127,19.0871204 152.462127,21.6382338 L152.462127,24.3424004 L141.514546,24.3424004 L141.480653,24.4444444 C141.571036,25.6576406 141.974929,26.6553944 142.692343,27.4377358 C143.409758,28.2200773 144.384185,28.6112421 145.615653,28.6112421 C146.711546,28.6112421 147.621011,28.5006955 148.344074,28.2795991 C149.067138,28.0585026 149.857977,27.7098556 150.716615,27.2336478 L152.055406,30.2949686 C151.298449,30.8958975 150.318373,31.4004435 149.11515,31.8086216 C147.911927,32.2167997 146.570325,32.4208857 145.090304,32.4208857 C142.446603,32.4208857 140.333933,31.5705274 138.752231,29.8697851 L138.752231,29.8697851 Z M144.64969,17.1482966 C143.734562,17.1482966 143.011509,17.4997781 142.480509,18.2027516 C141.94951,18.905725 141.621876,19.8297811 141.4976,20.9749476 L141.54844,21.0599843 L147.615365,21.0599843 L147.615365,20.6177935 C147.615365,19.5633333 147.369641,18.7214785 146.878183,18.0922039 C146.386726,17.4629292 145.643902,17.1482966 144.64969,17.1482966 L144.64969,17.1482966 L144.64969,17.1482966 Z M155.173603,29.0874476 L157.546143,28.5772275 L157.546143,17.165304 L154.919402,16.6550839 L154.919402,13.6617925 L162.155651,13.6617925 L162.375958,16.3489518 C162.805277,15.3965361 163.358865,14.6538898 164.036737,14.1209906 C164.714609,13.5880913 165.499799,13.3216457 166.392331,13.3216457 C166.652182,13.3216457 166.926151,13.3414874 167.214247,13.3811714 C167.502343,13.4208554 167.742419,13.4690423 167.934483,13.5257338 L167.409134,18.0496855 L165.375528,17.9986635 C164.652464,17.9986635 164.053686,18.1403899 163.579176,18.423847 C163.104665,18.707304 162.743139,19.109807 162.494585,19.6313679 L162.494585,28.5772275 L164.867126,29.0874476 L164.867126,32.0637317 L155.173603,32.0637317 L155.173603,29.0874476 L155.173603,29.0874476 Z M169.256327,29.0874476 L171.645814,28.5772275 L171.645814,17.165304 L169.002126,16.6550839 L169.002126,13.6617925 L176.594256,13.6617925 L176.594256,28.5772275 L178.966797,29.0874476 L178.966797,32.0637317 L169.256327,32.0637317 L169.256327,29.0874476 L169.256327,29.0874476 Z M176.594256,9.25689203 L171.645814,9.25689203 L171.645814,5.53228512 L176.594256,5.53228512 L176.594256,9.25689203 L176.594256,9.25689203 Z M192.269972,32.0637317 C192.134398,31.7575981 192.015772,31.4429655 191.914091,31.1198244 C191.81241,30.7966834 191.733326,30.4707127 191.676837,30.1419025 C191.089348,30.8221994 190.374768,31.3720978 189.533077,31.7916143 C188.691386,32.2111307 187.728257,32.4208857 186.643661,32.4208857 C184.8473,32.4208857 183.420965,31.9305124 182.364614,30.949751 C181.308264,29.9689897 180.780096,28.633927 180.780096,26.9445231 C180.780096,25.2211042 181.469256,23.8888761 182.847596,22.9477987 C184.225936,22.0067214 186.248224,21.5361897 188.914522,21.5361897 L191.439583,21.5361897 L191.439583,19.7334119 C191.439583,18.849026 191.185385,18.1630702 190.67698,17.6755241 C190.168576,17.187978 189.417279,16.9442086 188.423067,16.9442086 C187.858173,16.9442086 187.355426,17.0094027 186.914809,17.139793 C186.474192,17.2701832 186.118314,17.4260823 185.847165,17.6074948 L185.525178,19.5803459 L181.796899,19.5803459 L181.813846,15.4985849 C182.717676,14.8863177 183.75424,14.3704336 184.923569,13.9509172 C186.092899,13.5314008 187.366714,13.3216457 188.745054,13.3216457 C191.015926,13.3216457 192.860276,13.8800477 194.278158,14.9968684 C195.696041,16.1136892 196.404972,17.7038594 196.404972,19.7674266 L196.404972,27.3697065 C196.404972,27.6531635 196.407796,27.9196092 196.413445,28.1690514 C196.419094,28.4184936 196.438865,28.6565939 196.472759,28.8833595 L197.981017,29.0874476 L197.981017,32.0637317 L192.269972,32.0637317 L192.269972,32.0637317 Z M187.982452,28.7473008 C188.728111,28.7473008 189.405973,28.5857327 190.016058,28.2625917 C190.626143,27.9394507 191.100647,27.5341132 191.439583,27.0465671 L191.439583,24.2403564 L188.914522,24.2403564 C187.86382,24.2403564 187.067332,24.4869603 186.525034,24.9801756 C185.982736,25.4733908 185.711592,26.0658072 185.711592,26.7574423 C185.711592,27.3810478 185.912126,27.8685866 186.3132,28.2200734 C186.714274,28.5715601 187.270686,28.7473008 187.982452,28.7473008 L187.982452,28.7473008 L187.982452,28.7473008 Z" id="apeperia" fill="#000000"></path>
        </g>
    </g>
</svg>