<?xml version="1.0" encoding="UTF-8" standalone="no"?>
<svg width="69px" height="80px" viewBox="0 0 69 80" version="1.1" xmlns="http://www.w3.org/2000/svg" xmlns:xlink="http://www.w3.org/1999/xlink">
    <!-- Generator: Sketch 39.1 (31720) - http://www.bohemiancoding.com/sketch -->
    <title>Preco</title>
    <desc>Created with Sketch.</desc>
    <defs></defs>
    <g id="Page-1" stroke="none" stroke-width="1" fill="none" fill-rule="evenodd">
        <g id="Preco" fill="#000000">
            <path d="M68.2666667,20.1501928 L68.2540335,59.7106324 L34.1207002,79.5018312 L0,59.7325901 L0.0126331259,20.1721505 L34.1459665,0.380952 L68.2666667,20.1501928 L68.2666667,20.1501928 L68.2666667,20.1501928 Z M64.4740741,22.31404 L64.4628442,57.5140392 L34.1221035,75.1238072 L3.79259259,57.5335764 L3.80382246,22.3335775 L34.1445632,4.72380914 L64.4740741,22.31404 L64.4740741,22.31404 L64.4740741,22.31404 Z M26.5481481,26.7224701 L32.237037,26.7224701 L32.237037,22.9129463 L36.0296296,22.9129463 L36.0296296,26.7224701 L41.7185185,26.7224701 L41.7185185,34.3415177 L37.9259259,34.3415177 L37.9259259,30.5319939 L30.3407407,30.5319939 L30.3407407,38.1510415 L41.7185185,38.1510415 L41.7185185,53.3891368 L36.0296296,53.3891368 L36.0296296,57.1986606 L32.237037,57.1986606 L32.237037,53.3891368 L26.5481481,53.3891368 L26.5481481,45.7700891 L30.3407407,45.7700891 L30.3407407,49.579613 L37.9259259,49.579613 L37.9259259,41.9605653 L26.5481481,41.9605653 L26.5481481,26.7224701 L26.5481481,26.7224701 L26.5481481,26.7224701 Z" id="Shape"></path>
        </g>
    </g>
</svg>