<?xml version="1.0" encoding="UTF-8" standalone="no"?>
<svg width="58px" height="79px" viewBox="0 0 58 79" version="1.1" xmlns="http://www.w3.org/2000/svg" xmlns:xlink="http://www.w3.org/1999/xlink">
    <!-- Generator: Sketch 39.1 (31720) - http://www.bohemiancoding.com/sketch -->
    <title>Shape</title>
    <desc>Created with Sketch.</desc>
    <defs></defs>
    <g id="Page-1" stroke="none" stroke-width="1" fill="none" fill-rule="evenodd">
        <path d="M37.78261,23.222778 L37.78261,9.726818 L38.99846,9.726818 C39.84956,9.726818 40.51828,9.0580993 40.51828,8.2070027 L40.51828,1.5198153 C40.51828,0.6687187 39.84956,0 38.99846,0 L18.32897,0 C17.47788,0 16.80916,0.6687187 16.80916,1.5198153 L16.80916,8.2070027 C16.80916,9.0580993 17.47788,9.726818 18.32897,9.726818 L19.54482,9.726818 L19.54482,23.222778 C7.99423,27.174298 0,38.177761 0,50.366679 C0,66.142362 12.85764,79 28.63332,79 C44.4394,79 57.29704,66.172759 57.29704,50.366679 C57.32743,38.177761 49.33321,27.174298 37.78261,23.222778 L37.78261,23.222778 L37.78261,23.222778 Z M28.63332,75.929973 C14.52943,75.929973 3.03963,64.440169 3.03963,50.336283 C3.03963,44.743363 4.89381,39.363217 8.38938,34.834167 C11.73297,30.487495 16.38361,27.265487 21.49019,25.745671 C22.12851,25.563294 22.58446,24.955367 22.58446,24.286649 L22.58446,8.2070027 C22.58446,7.3559061 21.91574,6.6871874 21.06464,6.6871874 L19.84879,6.6871874 L19.84879,3.0396306 L37.47865,3.0396306 L37.47865,6.6871874 L36.26279,6.6871874 C35.4117,6.6871874 34.74298,7.3559061 34.74298,8.2070027 L34.74298,24.317045 C34.74298,24.985764 35.19892,25.59369 35.83725,25.776068 C40.94382,27.295883 45.59446,30.517891 48.93805,34.864563 C52.43363,39.393613 54.2878,44.773759 54.2878,50.366679 C54.2878,64.470566 42.7676,75.929973 28.63332,75.929973 L28.63332,75.929973 L28.63332,75.929973 Z M50.64025,54.80454 C50.94421,53.345518 51.09619,51.856098 51.09619,50.336283 C51.09619,49.515583 51.0354,48.694883 50.94421,47.874182 C50.94421,47.874182 50.94421,47.874182 50.94421,47.843786 C50.76183,46.0808 50.33628,44.348211 49.72836,42.676414 C49.72836,42.646018 49.69796,42.615621 49.69796,42.615621 C49.63717,42.494036 49.60677,42.342055 49.54598,42.220469 C49.33321,41.703732 48.87726,41.338977 48.29973,41.247788 C47.7526,41.186995 47.17507,41.490958 46.8711,41.946903 C44.07464,46.050404 36.93151,48.63409 28.96768,48.938053 C28.96768,48.938053 28.96768,48.938053 28.93728,48.938053 C28.84609,48.938053 28.72451,48.87726 28.63332,48.87726 C20.5783,48.87726 13.25279,46.0808 10.42593,41.916506 C10.12197,41.460562 9.54444,41.186995 8.99731,41.247788 C8.45017,41.30858 7.96383,41.673336 7.75106,42.190073 C6.74798,44.773759 6.23124,47.509427 6.23124,50.305887 C6.23124,51.308965 6.29204,52.312043 6.44402,53.284725 C6.44402,53.315121 6.44402,53.375914 6.47441,53.40631 C6.71758,55.1389 7.17353,56.810696 7.78145,58.421701 C7.81185,58.482493 7.81185,58.51289 7.84225,58.573682 C8.41978,60.002309 9.11889,61.370142 9.96999,62.646787 C10.00038,62.737976 10.06118,62.798769 10.12197,62.889958 C10.94267,64.10581 11.88496,65.230473 12.91843,66.263948 C12.94883,66.294344 12.94883,66.32474 12.97922,66.355137 C13.00962,66.385533 13.07041,66.415929 13.10081,66.446326 C14.13428,67.449404 15.25895,68.330896 16.4748,69.1212 C16.56599,69.212389 16.65718,69.273182 16.77876,69.303578 C18.0858,70.124279 19.45364,70.792997 20.91266,71.340131 C20.94306,71.370527 21.00385,71.370527 21.03424,71.370527 C22.67564,71.948057 24.37784,72.373605 26.14082,72.555983 L26.23201,72.555983 C27.02232,72.647172 27.81262,72.677568 28.63332,72.677568 C30.15314,72.677568 31.64255,72.525587 33.10158,72.221624 L33.16237,72.221624 C41.9469,70.489034 48.84686,63.558676 50.64025,54.80454 L50.64025,54.80454 L50.64025,54.80454 L50.64025,54.80454 Z M30.12274,69.637938 L47.99577,51.76491 C47.93497,52.464025 47.84379,53.132743 47.7526,53.801462 L32.15929,69.394767 C31.49057,69.485956 30.82185,69.577145 30.12274,69.637938 L30.12274,69.637938 L30.12274,69.637938 Z M24.46903,69.212389 L47.60062,46.0808 C47.7222,46.567141 47.81339,47.083878 47.87418,47.600616 L25.95845,69.516352 C25.44171,69.425164 24.95537,69.333975 24.46903,69.212389 L24.46903,69.212389 L24.46903,69.212389 Z M20.00077,67.601385 L36.56676,51.035398 C37.38746,50.85302 38.20816,50.640246 38.96806,50.397076 L21.21662,68.148519 C20.79107,67.996537 20.39592,67.814159 20.00077,67.601385 L20.00077,67.601385 L20.00077,67.601385 Z M16.32282,65.200077 L29.66679,51.856098 C30.30512,51.825702 30.91304,51.825702 31.55137,51.76491 L17.35629,65.959985 C16.99154,65.716814 16.65718,65.473644 16.32282,65.200077 L16.32282,65.200077 L16.32282,65.200077 Z M13.34398,62.099654 L23.8611,51.582532 C24.37784,51.643324 24.92497,51.704117 25.4721,51.76491 L14.13428,63.102732 C13.86072,62.768372 13.58715,62.434013 13.34398,62.099654 L13.34398,62.099654 L13.34398,62.099654 Z M9.63563,53.649481 L14.43825,48.846864 C14.8334,49.029242 15.22855,49.242016 15.6541,49.393998 L9.93959,55.108503 C9.81801,54.622162 9.72682,54.135821 9.63563,53.649481 L9.63563,53.649481 L9.63563,53.649481 Z M11.06426,58.300115 L18.81531,50.549057 C19.27126,50.670643 19.7576,50.792228 20.21354,50.913813 L11.64179,59.485571 C11.42901,59.090419 11.24663,58.695267 11.06426,58.300115 L11.06426,58.300115 L11.06426,58.300115 Z M11.70258,47.266256 L9.36206,49.606772 C9.42285,48.299731 9.57484,47.023086 9.8788,45.776837 C10.42593,46.323971 11.03386,46.810312 11.70258,47.266256 L11.70258,47.266256 L11.70258,47.266256 Z M39.33282,66.507118 L44.86495,60.97499 C43.40593,63.163524 41.52135,65.048095 39.33282,66.507118 L39.33282,66.507118 L39.33282,66.507118 Z" id="Shape" fill="#000000"></path>
    </g>
</svg>